<?xml version="1.0" encoding="UTF-8" standalone="no"?>
<!-- Created with Inkscape (http://www.inkscape.org/) -->

<svg
   xmlns:dc="http://purl.org/dc/elements/1.1/"
   xmlns:cc="http://creativecommons.org/ns#"
   xmlns:rdf="http://www.w3.org/1999/02/22-rdf-syntax-ns#"
   xmlns:svg="http://www.w3.org/2000/svg"
   xmlns="http://www.w3.org/2000/svg"
   xmlns:sodipodi="http://sodipodi.sourceforge.net/DTD/sodipodi-0.dtd"
   xmlns:inkscape="http://www.inkscape.org/namespaces/inkscape"
   width="102.28152mm"
   height="29.045238mm"
   viewBox="0 0 102.28152 29.045238"
   version="1.1"
   id="svg8"
   inkscape:version="0.92.3 (2405546, 2018-03-11)"
   sodipodi:docname="logo.svg">
  <defs
     id="defs2" />
  <sodipodi:namedview
     id="base"
     pagecolor="#ffffff"
     bordercolor="#666666"
     borderopacity="1.0"
     inkscape:pageopacity="0.0"
     inkscape:pageshadow="2"
     inkscape:zoom="1"
     inkscape:cx="130.41904"
     inkscape:cy="-90.718027"
     inkscape:document-units="mm"
     inkscape:current-layer="layer1"
     showgrid="false"
     inkscape:window-width="1680"
     inkscape:window-height="987"
     inkscape:window-x="-8"
     inkscape:window-y="-8"
     inkscape:window-maximized="1"
     fit-margin-top="0"
     fit-margin-left="0"
     fit-margin-right="0"
     fit-margin-bottom="0" />
  <metadata
     id="metadata5">
    <rdf:RDF>
      <cc:Work
         rdf:about="">
        <dc:format>image/svg+xml</dc:format>
        <dc:type
           rdf:resource="http://purl.org/dc/dcmitype/StillImage" />
        <dc:title></dc:title>
      </cc:Work>
    </rdf:RDF>
  </metadata>
  <g
     inkscape:label="Layer 1"
     inkscape:groupmode="layer"
     id="layer1"
     transform="translate(-48.686861,-95.785617)">
    <path
       style="fill:#00a8ca;fill-opacity:1;stroke-width:0.26458332"
       d="m 57.667704,124.31584 c -1.110729,-0.67726 -1.309835,-1.12083 -1.475687,-3.28757 -0.121479,-1.58705 -0.243815,-1.92376 -0.958651,-2.6386 -0.726518,-0.72652 -1.044975,-0.83785 -2.809344,-0.98217 -1.586092,-0.12973 -2.124392,-0.28907 -2.652429,-0.78514 -1.473238,-1.38403 -1.440708,-4.05089 0.06645,-5.44768 0.561755,-0.52061 0.961276,-0.63051 2.29516,-0.63133 2.84357,-0.002 4.128553,-1.34633 4.128553,-4.32006 0,-1.18971 0.116243,-1.54387 0.697538,-2.12516 0.619443,-0.61944 0.9028,-0.69754 2.530935,-0.69754 3.46543,0 3.650693,0.36992 3.650693,7.28936 v 5.19898 l 0.899584,0.89958 c 0.803005,0.803 1.054414,0.89958 2.341768,0.89958 1.818773,0 2.958136,0.39234 3.488065,1.20111 0.559473,0.85387 0.560365,3.76433 0.0014,4.56237 -0.855718,1.2217 -1.620727,1.38034 -6.651528,1.37928 -4.196504,-7.9e-4 -4.80132,-0.057 -5.552503,-0.51501 z m 3.666447,-17.1198 c 0.67584,-0.61162 0.621846,-1.81671 -0.104183,-2.32524 -0.323421,-0.22653 -1.070836,-0.41187 -1.660921,-0.41187 -1.476968,0 -2.248958,0.59098 -2.248958,1.72164 0,0.57601 0.165987,0.99457 0.463021,1.16758 0.755663,0.44013 3.002993,0.34387 3.551041,-0.15211 z m 21.46897,17.1198 c -1.113825,-0.67915 -1.405949,-1.28842 -1.405949,-2.93235 0,-2.68481 -1.192797,-3.95998 -3.704166,-3.95998 -2.554611,0 -3.704167,-1.23024 -3.704167,-3.96414 0,-1.13778 -0.127199,-1.47399 -0.859896,-2.27289 -0.799677,-0.87192 -1.006065,-0.95152 -2.947113,-1.13662 -1.820698,-0.17362 -2.166994,-0.29178 -2.711979,-0.92536 -0.51517,-0.59893 -0.624762,-1.02186 -0.624762,-2.41107 0,-1.42646 0.105008,-1.80953 0.684978,-2.49879 0.583966,-0.694 0.866843,-0.81427 1.918229,-0.81552 1.731864,-0.002 3.018552,-0.41398 3.760618,-1.20387 0.513064,-0.54613 0.667842,-1.06641 0.800788,-2.691782 0.148963,-1.82119 0.243742,-2.085338 0.986309,-2.748821 1.033628,-0.923546 2.42418,-1.201706 3.776431,-0.755423 1.571361,0.518596 1.930162,1.083737 2.113852,3.329497 0.138057,1.687859 0.269129,2.082369 0.916262,2.757839 0.84006,0.87683 2.07762,1.31034 3.747051,1.31256 0.781751,0.001 1.323281,0.18517 1.832311,0.62302 1.355111,1.16561 1.113901,4.92216 -0.365088,5.68585 -0.253156,0.13072 -1.244883,0.2976 -2.203837,0.37085 -0.980625,0.0749 -2.041562,0.32844 -2.424602,0.57942 -1.373761,0.90012 -1.911514,3.21231 -1.160028,4.98781 0.618093,1.46033 1.314521,1.8678 3.557831,2.08163 1.81955,0.17344 2.111949,0.28007 2.762541,1.0074 0.608102,0.67983 0.727604,1.0539 0.727604,2.2776 0,1.74453 -0.520023,2.87025 -1.57884,3.41779 -1.07945,0.5582 -2.877701,0.50527 -3.894378,-0.11465 z m 14.975054,-0.0873 c -1.349074,-0.90914 -1.556065,-1.55468 -1.560436,-4.86655 -0.0037,-2.78306 -0.04359,-3.00342 -0.681307,-3.76131 -0.443929,-0.52758 -1.013884,-0.85882 -1.653646,-0.96106 -2.637907,-0.42154 -3.630986,-1.59525 -3.427355,-4.05075 0.101407,-1.22285 0.255249,-1.57653 0.95939,-2.20568 l 0.838616,-0.74931 H 96.8206 c 6.6845,0 6.53699,-0.19105 6.53699,8.46667 0,4.4822 -0.0885,6.04955 -0.38095,6.74958 -0.78389,1.8761 -3.421952,2.5756 -5.198465,1.37841 z m 10.689535,0.0873 c -0.46366,-0.28271 -0.96968,-0.75068 -1.12448,-1.03995 -0.18304,-0.34201 -0.28147,-3.66524 -0.28147,-9.50307 v -8.97715 l 0.69753,-0.69754 0.69754,-0.69754 h 4.48219 4.48219 l 0.7734,0.7734 c 0.7177,0.7177 0.7734,0.9167 0.7734,2.76337 0,1.70839 0.0881,2.09245 0.62295,2.7142 0.56403,0.65573 0.83884,0.73856 2.90555,0.87579 2.03706,0.13527 2.36138,0.2303 3.01507,0.8835 l 0.73247,0.73194 0.073,5.08775 c 0.0808,5.62859 0.005,5.98033 -1.50505,6.99805 -1.53583,1.03499 -3.89461,0.66109 -4.9019,-0.77702 -0.3397,-0.485 -0.41294,-1.49878 -0.41294,-5.71622 0,-4.07565 -0.0838,-5.30329 -0.40884,-5.98824 -0.83524,-1.76013 -3.13654,-2.12205 -4.41255,-0.69395 l -0.73486,0.82245 -0.004,5.22134 c -0.004,5.74821 -0.0902,6.14085 -1.56043,7.13164 -1.12008,0.75482 -2.75423,0.79129 -3.90888,0.0873 z m 29.52713,-0.0873 c -1.19038,-0.80219 -1.55575,-1.60472 -1.56043,-3.42746 -0.003,-1.29562 -0.11541,-1.64198 -0.76743,-2.37172 -0.70056,-0.78407 -0.93344,-0.86844 -2.82367,-1.02305 -1.88007,-0.15378 -2.12555,-0.2417 -2.80835,-1.00589 -0.66011,-0.73879 -0.7482,-1.04179 -0.7482,-2.57336 0,-1.56592 0.0758,-1.81172 0.7734,-2.50936 0.67096,-0.67097 0.96995,-0.7734 2.25745,-0.7734 2.84437,0 4.1129,-1.06061 4.1129,-3.43877 0,-1.58569 0.53849,-3.02059 1.28312,-3.4191 0.82327,-0.4406 4.05012,-0.35961 4.73314,0.11879 0.90799,0.63599 1.12443,2.01955 1.12601,7.19793 l 0.002,4.82447 0.75779,0.84811 c 0.68627,0.76807 0.95073,0.86654 2.80232,1.0434 2.16728,0.20702 2.79021,0.54251 3.47844,1.87338 0.80108,1.54912 0.19046,3.81418 -1.26794,4.70334 -0.7931,0.48354 -1.32818,0.53406 -5.66534,0.53496 -4.54831,0.001 -4.8346,-0.0294 -5.68469,-0.60227 z m 3.77265,-17.03254 c 0.26612,-0.24084 0.48385,-0.71245 0.48385,-1.04803 0,-1.62804 -2.81351,-2.33921 -4.11307,-1.03966 -0.75677,0.75677 -0.80262,1.13078 -0.23755,1.93753 0.34246,0.48894 0.66224,0.58804 1.89739,0.58804 1.011,0 1.64008,-0.13987 1.96938,-0.43788 z m -43.966151,-4.64818 c -1.539592,-0.8036 -2.070354,-3.641901 -0.983562,-5.259702 1.181423,-1.758669 3.998163,-2.026171 5.501833,-0.522501 1.28259,1.282593 1.34848,3.820183 0.13579,5.230023 -0.52577,0.61124 -0.8568,0.72703 -2.30331,0.80563 -1.047353,0.0569 -1.940649,-0.0394 -2.350751,-0.25345 z"
       id="path4533"
       inkscape:connector-curvature="0" />
    <path
       style="fill:#000000;stroke-width:0.26458332"
       d=""
       id="path4531"
       inkscape:connector-curvature="0" />
    <path
       style="fill:#000000;stroke-width:0.26458332"
       d=""
       id="path4529"
       inkscape:connector-curvature="0" />
  </g>
</svg>
